<svg xmlns="http://www.w3.org/2000/svg" width="128.879" height="33.9" viewBox="0 0 128.879 33.9"><defs><style>.a{fill:#848688;}.a,.b,.c,.d{fill-rule:evenodd;}.b{fill:#f79733;}.c{fill:#96989a;}.d{fill:#e2e2e2;}.e{fill:#606062;}</style></defs><path class="a" d="M5893.986,620.725l.008-4.38c-2.03.037-4.067.008-6.1.008-2.32,0-4.365.684-3.941-2.194l8.076.007.007-4.313-8.15-.007c-.037-2.945,1.361-2.186,4.008-2.186,2.007,0,4.038-.022,6.045.007l.044-4.365c-14.455-.1-14.953-1.353-14.953,8.685,0,3.837-.617,7.689,3.175,8.544C5884.632,621.075,5891.042,620.658,5893.986,620.725Z" transform="translate(-5835.28 -598.715)"/><path class="a" d="M15366.236,628.522c-1.33.833-7.488.431-9.687.416v4.328c3.041-.052,6.1.015,9.139-.007,3.25-.022,5.205-.7,5.367-3.911.156-2.974.09-5.852-2.357-6.767a12.546,12.546,0,0,0-4.26-.372c-1.6.008-3.443.424-3-1.606,1.322-.8,7.449-.431,9.576-.394l.053-4.372c-3.07.022-6.1-.007-9.123,0-3.123.015-5.229.706-5.377,3.874-.148,3.034-.1,5.874,2.32,6.811C15362.459,627.9,15366.6,625.347,15366.236,628.522Z" transform="translate(-15242.325 -611.256)"/><path class="b" d="M973.695,634.058h4.662c.045-1.7-.149-10.76.208-11.875.416-1.3,1.547-1.234,2.967-1.227,3.45,0,3.3.327,3.3,4.908,0,2.722-.03,5.465.007,8.194l4.662-.015c.015-4.224.06-8.469.007-12.641-.074-5.034-3.354-4.759-7.8-4.759C971.992,616.643,973.695,617.58,973.695,634.058Z" transform="translate(-966.341 -612.055)"/><path class="a" d="M8161.189,633.489l4.677-.007c-.038-1.539-.193-10.767.186-11.957.423-1.316,1.524-1.138,3.063-1.138,3.755,0,3.2,1.428,3.2,4.908v8.194H8177c0-16.337,1.674-17.415-7.881-17.415-4.462,0-7.853-.394-7.934,4.759C8161.122,625,8161.145,629.31,8161.189,633.489Z" transform="translate(-8100.46 -611.486)"/><path class="a" d="M12962.779,617.037l-4.617-.03c-.135,2.64-.023,5.525-.023,8.142,0,3.666.586,4.945-3.3,4.945-3.768.007-3.158-1.472-3.158-4.945a80.08,80.08,0,0,0-.061-8.15h-4.564l-.053,12.611c.074,5.079,3.285,4.8,7.836,4.8,8.91,0,7.973-1.167,7.973-11.05C12962.809,621.4,12962.941,618.941,12962.779,617.037Z" transform="translate(-12850.728 -612.412)"/><path class="a" d="M10539,621.291l5.525.089v13.035l4.633-.022-.008-13.028,5.54-.015.029-4.32-15.712-.03Z" transform="translate(-10460.633 -612.412)"/><path class="b" d="M0,634.415H5.086L5.079,617H.059Z" transform="translate(0 -612.412)"/><path class="c" d="M10299.953,3518.373c-5.242.55-4.491,8.172.729,7.688C10305.68,3525.593,10305.047,3517.83,10299.953,3518.373Zm9.972,7.6,1.131-.007,1.769-5.064.967,2.491a10.4,10.4,0,0,0,1,2.6h1.093l2.544-7.51-1.45.015-1.666,5.3c-.779-1.249-1.138-4.313-1.94-5.309l-1.086-.022a38.537,38.537,0,0,1-1.77,5.175l-1.718-5.16-1.428.022Zm23.229-.03,1.311.008.044-2.521c1.785-.26,1.732.074,2.454,1.2.862,1.346.565,1.338,2.424,1.309a25.044,25.044,0,0,0-1.8-2.662c.313-.379,1.2-.722,1.5-1.555a2.477,2.477,0,0,0-.469-2.476c-1.108-1.167-3.7-.788-5.459-.773Zm-46.153.008h1.323l.022-2.38c1.278-.119,2.269.171,3.3-.46a2.456,2.456,0,0,0,1.063-2.677c-.417-2.394-3.421-1.963-5.7-1.971Zm35.863-.06,5.613.052-.021-1.167-4.216-.03.021-1.956,3.688-.022-.015-1.123-3.606-.066-.1-1.9,4.135-.015.081-1.19-5.576.008Zm-22.9-6.276c-3.377.52-2.595,5.666.7,5.19C10303.887,3524.329,10303.1,3519.131,10299.961,3519.614Zm34.525,2.483c4.847.781,4.364-3.235,0-2.305Zm-46.148.179c1.391.23,2.967.148,3.057-1.167.1-1.487-1.711-1.6-3.063-1.316Z" transform="translate(-10210.507 -3492.183)"/><path class="b" d="M0,2.982l5.079-.007V.007L0,0Z"/><path class="d" d="M4192,2090.83h4.9l-2.275-5.48c-.246-.372-.06-.119-.283-.35Z" transform="translate(-4160.828 -2069.496)"/><rect class="e" width="5.638" height="6.67" transform="translate(30.874 15.169)"/><path class="a" d="M4531.826,633.326c.952-3.019,6.848-15.9,7.072-17.326l-5.414.015L4529,626.581Z" transform="translate(-4495.323 -611.419)"/><path class="b" d="M3198.964,626.581l-4.491-10.537L3189,616c.163,1.621,6.358,14.745,7.1,17.422Z" transform="translate(-3165.287 -611.419)"/></svg>