<svg xmlns="http://www.w3.org/2000/svg" width="213.283" height="56.101" viewBox="0 0 213.283 56.101"><defs><style>.a{fill:#fff;}.a,.b{fill-rule:evenodd;}.b{fill:#e2e2e2;}.c{fill:#606062;}</style></defs><path class="a" d="M5903.8,632.2l.012-7.248c-3.36.061-6.731.012-10.091.012-3.839,0-7.223,1.132-6.521-3.63l13.363.012.013-7.137-13.487-.012c-.062-4.873,2.251-3.618,6.632-3.618,3.322,0,6.682-.037,10,.012l.074-7.223c-23.922-.172-24.747-2.24-24.747,14.373,0,6.35-1.022,12.724,5.254,14.139C5888.323,632.781,5898.93,632.091,5903.8,632.2Z" transform="translate(-5806.65 -595.778)"/><path class="a" d="M15372.6,636.83c-2.205,1.378-12.393.714-16.035.689v7.162c5.033-.086,10.092.024,15.123-.012,5.377-.037,8.614-1.157,8.885-6.473.26-4.922.148-9.684-3.9-11.2-2.127-.788-4.638-.615-7.051-.615-2.647.012-5.7.7-4.972-2.658,2.19-1.329,12.332-.714,15.852-.652l.088-7.236c-5.087.037-10.094-.012-15.1,0-5.168.025-8.649,1.169-8.9,6.411-.245,5.021-.161,9.721,3.839,11.272C15366.35,635.809,15373.206,631.576,15372.6,636.83Z" transform="translate(-15167.542 -608.257)"/><path class="a" d="M973.77,645.465h7.715c.074-2.806-.246-17.806.344-19.652.689-2.154,2.56-2.043,4.91-2.03,5.71,0,5.464.542,5.464,8.122,0,4.5-.049,9.045.012,13.561l7.716-.025c.025-6.99.1-14.016.012-20.92-.123-8.331-5.55-7.876-12.909-7.876C970.952,616.645,973.77,618.2,973.77,645.465Z" transform="translate(-961.6 -609.053)"/><path class="a" d="M8161.218,644.9l7.74-.012c-.062-2.547-.32-17.819.308-19.788.7-2.178,2.521-1.883,5.07-1.883,6.213,0,5.3,2.363,5.3,8.122V644.9h7.741c0-27.035,2.769-28.82-13.044-28.82-7.383,0-13-.652-13.132,7.875C8161.107,630.858,8161.144,637.983,8161.218,644.9Z" transform="translate(-8060.717 -608.486)"/><path class="a" d="M12973.11,617.062l-7.641-.049c-.221,4.369-.036,9.143-.036,13.475,0,6.067.972,8.183-5.462,8.183-6.24.013-5.231-2.436-5.231-8.183,0-3.852.357-9.906-.1-13.487h-7.555l-.088,20.87c.123,8.4,5.44,7.95,12.972,7.95,14.74,0,13.188-1.932,13.188-18.286C12973.16,624.285,12973.383,620.212,12973.11,617.062Z" transform="translate(-12787.677 -609.407)"/><path class="a" d="M10539,624.1l9.143.148V645.82l7.667-.037-.012-21.56,9.168-.025.049-7.149-26-.049Z" transform="translate(-10409.313 -609.407)"/><path class="a" d="M0,645.82H8.417L8.4,617H.1Z" transform="translate(0 -609.407)"/><path class="a" d="M10308.438,3518.39c-8.678.911-7.435,13.524,1.206,12.723C10317.912,3530.339,10316.865,3517.491,10308.438,3518.39Zm16.5,12.576,1.869-.012,2.932-8.381,1.6,4.122a17.034,17.034,0,0,0,1.662,4.3h1.808l4.208-12.429-2.4.025-2.754,8.774c-1.294-2.067-1.884-7.138-3.212-8.786l-1.8-.037c-.109.517-2.25,7.716-2.926,8.565l-2.844-8.541-2.362.038Zm38.443-.05,2.167.012.071-4.172c2.953-.43,2.868.124,4.06,1.982,1.431,2.228.939,2.215,4.015,2.166a41.562,41.562,0,0,0-2.978-4.405c.517-.628,1.979-1.194,2.473-2.572a4.093,4.093,0,0,0-.776-4.1c-1.833-1.932-6.128-1.3-9.031-1.279Zm-76.382.012h2.189l.037-3.938c2.116-.2,3.756.283,5.465-.763a4.06,4.06,0,0,0,1.76-4.429c-.689-3.963-5.659-3.249-9.438-3.261Zm59.353-.1,9.291.086-.04-1.932-6.978-.049.038-3.236,6.105-.037-.025-1.858-5.969-.11-.173-3.15,6.841-.025.139-1.968-9.229.012Zm-37.9-10.386c-5.587.861-4.3,9.377,1.156,8.589C10314.946,3528.246,10313.642,3519.645,10308.449,3520.445Zm57.135,4.11c8.022,1.292,7.225-5.353,0-3.815Zm-76.367.3c2.3.381,4.908.246,5.058-1.932.158-2.461-2.831-2.646-5.069-2.178Z" transform="translate(-10160.411 -3475.05)"/><path class="a" d="M0,4.935l8.4-.012V.012L0,0Z"/><path class="b" d="M4192,2094.647h8.11l-3.766-9.069c-.406-.615-.1-.2-.467-.579Z" transform="translate(-4140.415 -2059.343)"/><rect class="c" width="9.331" height="11.038" transform="translate(51.093 25.104)"/><path class="a" d="M4533.676,644.672c1.576-5,11.333-26.31,11.7-28.672l-8.958.025L4529,633.511Z" transform="translate(-4473.268 -608.42)"/><path class="a" d="M3205.49,633.511l-7.433-17.437L3189,616c.271,2.683,10.522,24.4,11.752,28.832Z" transform="translate(-3149.757 -608.42)"/></svg>